<svg xmlns="http://www.w3.org/2000/svg" width="1600" height="900" viewBox="0 0 1600 900">

<defs>

<linearGradient id="bg" x1="0" y1="0" x2="1" y2="1">
<stop offset="0%" stop-color="#fafafa"/>
<stop offset="100%" stop-color="#f3f4f6"/>
</linearGradient>

<linearGradient id="green" x1="0" y1="0" x2="1" y2="0">
<stop offset="0%" stop-color="#76B900"/>
<stop offset="100%" stop-color="#5AA000"/>
</linearGradient>

<filter id="shadow">
<feDropShadow dx="0" dy="8" stdDeviation="12"
flood-opacity="0.10"/>
</filter>

<marker id="arrow"
markerWidth="10"
markerHeight="10"
refX="8"
refY="3"
orient="auto">

<path d="M0,0 L8,3 L0,6"
fill="#76B900"/>

</marker>

<style>

.title{
font:700 44px 'Segoe UI',Arial,sans-serif;
fill:#111827;
}

.subtitle{
font:18px 'Segoe UI',Arial,sans-serif;
fill:#6b7280;
}

.layer{
font:700 18px 'Segoe UI';
fill:#76B900;
letter-spacing:2px;
}

.heading{
font:700 24px 'Segoe UI';
fill:#111827;
}

.text{
font:16px 'Segoe UI';
fill:#6b7280;
}

.box{
fill:#fff;
stroke:#e5e7eb;
stroke-width:2;
rx:18;
filter:url(#shadow);
}

.arrow{
stroke:#76B900;
stroke-width:3;
fill:none;
marker-end:url(#arrow);
}

.line{
stroke:#d1d5db;
stroke-width:1.5;
}

</style>

</defs>

<rect width="100%" height="100%" fill="url(#bg)"/>

<text x="800" y="70"
text-anchor="middle"
class="title">

Path2Plate Workflow

</text>

<text x="800" y="105"
text-anchor="middle"
class="subtitle">

Bluetooth Controlled Indoor Food Delivery using A* Mimic Navigation

</text>

<!-- LAYER 1 -->

<text x="120" y="170" class="layer">
USER LAYER
</text>

<line x1="120" y1="180" x2="1480" y2="180" class="line"/>

<rect class="box" x="220" y="210" width="280" height="110"/>

<text class="heading" x="360" y="255"
text-anchor="middle">

Restaurant

</text>

<text class="text" x="360" y="285"
text-anchor="middle">

Create Delivery Order

</text>

<rect class="box" x="1100" y="210" width="280" height="110"/>

<text class="heading"
x="1240"
y="255"
text-anchor="middle">

Customer

</text>

<text class="text"
x="1240"
y="285"
text-anchor="middle">

Receives Food

</text>

<!-- Layer 2 -->

<text x="120" y="390" class="layer">

PATH PLANNING

</text>

<line x1="120" y1="400" x2="1480" y2="400" class="line"/>

<rect class="box"
x="520"
y="430"
width="560"
height="150"/>

<text class="heading"
x="800"
y="485"
text-anchor="middle">

A* Mimic Search Engine

</text>

<text class="text"
x="800"
y="520"
text-anchor="middle">

Compute Optimal Route

</text>

<text class="text"
x="800"
y="550"
text-anchor="middle">

Generate Navigation Instructions

</text>

<!-- Layer 3 -->

<text x="120" y="650" class="layer">

ROBOT EXECUTION

</text>

<line x1="120" y1="660" x2="1480" y2="660" class="line"/>

<rect class="box"
x="160"
y="700"
width="240"
height="120"/>

<text class="heading"
x="280"
y="745"
text-anchor="middle">

Bluetooth

</text>

<text class="text"
x="280"
y="775"
text-anchor="middle">

HC-05 Module

</text>

<rect class="box"
x="500"
y="700"
width="240"
height="120"/>

<text class="heading"
x="620"
y="745"
text-anchor="middle">

Arduino UNO

</text>

<text class="text"
x="620"
y="775"
text-anchor="middle">

Robot Controller

</text>

<rect class="box"
x="840"
y="700"
width="240"
height="120"/>

<text class="heading"
x="960"
y="745"
text-anchor="middle">

Motor Driver

</text>

<text class="text"
x="960"
y="775"
text-anchor="middle">

L298N

</text>

<rect class="box"
x="1180"
y="700"
width="240"
height="120"/>

<text class="heading"
x="1300"
y="745"
text-anchor="middle">

QR Verification

</text>

<text class="text"
x="1300"
y="775"
text-anchor="middle">

Authenticate Delivery

</text>

<!-- Arrows -->

<path class="arrow"
d="M500 265 L800 430"/>

<path class="arrow"
d="M1080 505 L1240 320"/>

<path class="arrow"
d="M800 580 L620 700"/>

<path class="arrow"
d="M740 760 L840 760"/>

<path class="arrow"
d="M1080 760 L1180 760"/>

<path class="arrow"
d="M400 760 L500 760"/>

<!-- Footer -->

<text x="800"
y="870"
text-anchor="middle"
class="subtitle">

Arduino UNO • HC-05 Bluetooth • L298N • OLED Display • QR Authentication • A* Inspired Navigation

</text>

</svg>